<?xml version="1.0" encoding="UTF-8"?>
<svg xmlns="http://www.w3.org/2000/svg" version="1.1" xmlns:xlink="http://www.w3.org/1999/xlink" viewBox="0 0 160 160">
  <!-- Generator: Adobe Illustrator 30.1.0, SVG Export Plug-In . SVG Version: 2.1.1 Build 136)  -->
  <defs>
    <style>
      .st0 {
        opacity: .1;
      }

      .st1 {
        fill: #1d1d1b;
      }

      .st2 {
        fill: none;
        stroke: #1d1d1b;
        stroke-miterlimit: 10;
      }
    </style>
  </defs>
  <g id="_Слой_2" data-name="Слой_2" class="st0">
    <image width="514" height="360" transform="translate(-172.1 -91.2)" xlink:href="logo cat-1.png"/>
  </g>
  <g id="_Слой_1" data-name="Слой_1">
    <path class="st1" d="M90.8,118.7s-.4-9.8-.4-9.8v-1.1s.7.9.7.9c4.1,3.6,12.2,2.6,17.2,1.9,6.6-1,15.2-4,18.6-8.8,0,.2,0,.5,0,.6,0,0,0,0,0,0-1.6-4.1-3.8-8.2-3.2-12.7.3-3.7,1.2-11.3,1.5-14.9,0,0,.2-2.3.2-2.3.5-3.1-.1-6.5-2.4-8.8-5.5-4.8-17-14.4-22.6-19.2-3.7-2.9-5.9-7.7-5.5-12.4,0,0,.3-4.6.3-4.6l.5-9.2c0-1.6.3-5.8.4-7.4-.1,2.1,2.5,3.1,3.9,1.6,0,0-.4.4-.4.4-7.2,5.3-25.6,18.7-32.5,23.8-3.3,2.3-8.2,6-10.7,7.7-11.6,9.8-19.8,23.6-22.1,38.8-2.2,15.2.7,31.3,8.9,44.4,5.4,8.8,12.9,16.5,21.6,22.4-9.3-5.1-17.4-12.4-23.5-21.2-19.4-28.1-14.5-66.4,11.4-88.7,5.5-4,16.3-12.1,21.8-16.1,7.2-5.4,14.4-10.7,21.7-15.9,0,0-.4.4-.4.4.6-.7,1.7-1.2,2.7-1.1,2.4,0,4,2.2,3.6,4.4-.2,4.1-.7,11.9-1,16.1-.3,4.9-1.1,8.9,3.1,12.5,3.7,3.2,15.4,13.6,19,16.8,1,1,2.7,2.2,3.6,3.3,3.1,3.4,4.2,8.2,3.3,12.7-.2,1.5-.7,5.3-.9,6.8,0,0-1.3,9.1-1.3,9.1-.6,3-.3,5.2.8,8.1.2.5,1,2.7,1.1,3.3,0,0,.2.5.2.5,0,0,0,.3,0,.3.3.7.1,1.9-.3,2.4-.9,1.2-2,2.3-3.2,3.2-7.8,5.4-18.1,6.8-27.4,6-3.1-.5-6.6-.9-8.8-3.5,0,0,.7-.3.7-.3,0,0-.4,9.8-.4,9.8h0Z"/>
    <path class="st2" d="M80,108.2"/>
    <path class="st1" d="M105.4,29.3c5.1-3.9,10.6-7.2,16.1-10.3.7-.4,1.6-.1,2,.6.2.4.2.8,0,1.2,0,0-4,11.9-4,11.9-1.1,3.5-2.5,6.9-3.1,10.5-.1.5,0,1-.1,1.6-1.2-4.1,0-8.6.8-12.7,1-4.1,2.2-8.2,3.7-12.2,0,0,2.1,1.8,2.1,1.8-5.7,2.9-11.5,5.7-17.5,7.7h0Z"/>
  </g>
</svg>